<svg xmlns="http://www.w3.org/2000/svg" id="svg7384" width="16" height="16" version="1.1"><metadata id="metadata90"/><title id="title9167">Gnome Symbolic Icon Theme</title><g id="layer12" transform="translate(-80 -746)"><path id="path44084" d="m92.301 748c-0.7713 0.0431-1.3331 0.68465-1.8161 1.2222-0.46673 0.60189-0.94251 1.2592-1.0739 2.0256-0.000657 0.22907 0.28412 0.34038 0.40841 0.51848 0.47078 0.42342 0.95555 1.0675 0.65626 1.7263-0.42175 0.83704-1.218 1.3922-1.8325 2.0789-0.49766 0.49947-1.1348 1.1788-1.9118 0.89084-0.57631-0.21885-0.91548-0.75054-1.3648-1.1129-0.62168 0.0481-1.1702 0.43406-1.6902 0.75268-0.66645 0.4833-1.3567 1.077-1.5985 1.8932-0.14214 0.64969 0.54025 0.99854 0.96224 1.3405 1.0542 0.76368 2.4704 0.86461 3.6752 0.42739 1.9405-0.68924 3.5042-2.1235 4.8813-3.6091 1.177-1.3385 2.3009-2.908 2.4517-4.7397 0.10335-1.2882-0.55312-2.5653-1.5457-3.3568l-0.09981-0.0394-0.1019-0.0182z" style="enable-background:new;fill:#bebebe"/></g></svg>