<svg xmlns="http://www.w3.org/2000/svg" xmlns:svg="http://www.w3.org/2000/svg" id="svg7384" width="16.013" height="16" version="1.1"><metadata id="metadata90"/><title id="title9167">Gnome Symbolic Icon Theme</title><g id="g4584" transform="matrix(0.52410865,0,0,0.48510027,20.670138,1.1914531)"><rect id="rect8450-1-2" width=".678" height="4.32" x="15.642" y="11.555" rx="0" ry="0" transform="matrix(0,1,-1,0,0,0)" style="color:#bebebe;fill:#bebebe"/><path id="rect8450-0-6-6-2" d="m -24.578732,1.5663842 0.444249,-0.5190105 12.580165,14.5934713 -0.0021,0.1094 -0.0055,0.12151 -0.395408,0.339541 L -24.142045,2.0765593 C -24.310908,1.8806709 -24.40984,1.7622558 -24.578704,1.5663672 Z" style="color:#bebebe;fill:#bebebe"/><rect id="rect8450-1" width=".678" height="4.491" x="15.642" y="32.279" rx="0" ry="0" transform="matrix(0,1,-1,0,0,0)" style="color:#bebebe;fill:#bebebe"/><path id="rect8450-0-6-6" d="m 17.561062,-23.859362 -0.003,7.256598 -0.68445,-0.102924 0.0065,-0.670947 -6e-6,-7.246942 m -2e-6,-2.699817 -8e-6,-8.729527 0.527656,0 0.06725,0.07713 0.08306,0.09094 0.0037,9.346732" transform="matrix(-0.75575324,-0.6548565,0.6548565,-0.75575324,0,0)" style="color:#bebebe;fill:#bebebe"/><g id="g4505" transform="translate(-11.375,0.125)"><rect style="color:#bebebe;fill:#bebebe" id="rect8450" width=".678" height="6.67" x="26.22" y="14.901" rx="0" ry="0" transform="matrix(0,1,-1,0,0,0)"/><rect style="color:#bebebe;fill:#bebebe" id="rect8450-0" width=".678" height="11.376" x="14.899" y="-26.893" rx="0" ry="0" transform="scale(-1,-1)"/><rect style="color:#bebebe;fill:#bebebe" id="rect8450-0-1" width=".678" height="11.376" x="9.822" y="-26.893" rx="0" ry="0" transform="scale(-1,-1)"/><rect style="color:#bebebe;fill:#bebebe" id="rect8450-97" width=".678" height="5.743" x="15.517" y="9.832" rx="0" ry="0" transform="matrix(0,1,-1,0,0,0)"/><rect style="color:#bebebe;fill:#bebebe" id="rect8450-0-6" width=".678" height="11.376" x="20.893" y="-26.893" rx="0" ry="0" transform="scale(-1,-1)"/><rect style="color:#bebebe;fill:#bebebe" id="rect8450-0-6-0" width=".678" height="11.376" x="3.822" y="-26.893" rx="0" ry="0" transform="scale(-1,-1)"/><rect style="color:#bebebe;fill:#bebebe" id="rect8450-1-2-2" width=".678" height="3.106" x="3.199" y="16.84" rx="0" ry="0" transform="matrix(0,1,-1,0,0,0)"/><rect style="color:#bebebe;fill:#bebebe" id="rect8450-0-6-1" width=".678" height="6.132" x="19.274" y="-9.332" rx="0" ry="0" transform="scale(-1,-1)"/><rect style="color:#bebebe;fill:#bebebe" id="rect8450-0-6-1-3" width=".678" height="3.439" x="16.84" y="-6.64" rx="0" ry="0" transform="scale(-1,-1)"/><rect style="color:#bebebe;fill:#bebebe" id="rect8450-2" width=".678" height="6.67" x="26.22" y="3.827" rx="0" ry="0" transform="matrix(0,1,-1,0,0,0)"/></g></g></svg>