<svg xmlns="http://www.w3.org/2000/svg" xmlns:svg="http://www.w3.org/2000/svg" id="svg7384" width="16" height="16" version="1.1"><metadata id="metadata90"/><title id="title9167">Gnome Symbolic Icon Theme</title><g id="g3386" transform="translate(0.1387434,-0.3050458)"><path id="path4409" d="m 2.7918951,4.3050915 c 0.1484578,0.008 0.2939105,0.0592 0.418473,0.15625 l 4.1847318,3 c 0.2363537,0.17971 0.366164,0.51173 0.366164,0.84375 0,0.33202 -0.1298103,0.66404 -0.366164,0.84375 L 3.2103681,12.148842 c -0.1245625,0.097 -0.2700152,0.14825 -0.418473,0.15625 l -0.1307724,0 -0.7061735,0 0,-8.0000005 0.7061735,0 z" style="color:#000;text-indent:0;text-transform:none;block-progression:tb;fill:#bebebe"/><path id="path4409-4" d="m 8.7981953,4.3049996 c 0.1484578,0.008 0.2939105,0.0592 0.418473,0.15625 l 4.1847317,3 c 0.236354,0.17971 0.366164,0.51173 0.366164,0.84375 0,0.33202 -0.12981,0.66404 -0.366164,0.84375 L 9.2166683,12.14875 C 9.0921058,12.24575 8.9466531,12.297 8.7981953,12.305 l -0.1307724,0 -0.7061735,0 0,-8.0000004 0.7061735,0 z" style="color:#000;text-indent:0;text-transform:none;block-progression:tb;fill:#bebebe"/></g></svg>