<svg xmlns="http://www.w3.org/2000/svg" xmlns:svg="http://www.w3.org/2000/svg" id="svg7384" width="16" height="16" version="1.1"><metadata id="metadata90"/><title id="title9167">Gnome Symbolic Icon Theme</title><g id="g3407" transform="matrix(-1,0,0,1,15.861167,-0.24352379)"><g id="g3386" transform="translate(-1.1493936,-0.03385936)"><path id="path4409" d="m 2.7918951,4.3050915 c 0.1484578,0.008 0.2939105,0.0592 0.418473,0.15625 l 4.1847318,3 c 0.2363537,0.17971 0.366164,0.51173 0.366164,0.84375 0,0.33202 -0.1298103,0.66404 -0.366164,0.84375 L 3.2103681,12.148842 c -0.1245625,0.097 -0.2700152,0.14825 -0.418473,0.15625 l -0.1307724,0 -0.7061735,0 0,-8.0000005 0.7061735,0 z" style="color:#000;text-indent:0;text-transform:none;block-progression:tb;fill:#bebebe"/><path id="path4409-4" d="m 8.7981953,4.3049996 c 0.1484578,0.008 0.2939105,0.0592 0.418473,0.15625 l 4.1847317,3 c 0.236354,0.17971 0.366164,0.51173 0.366164,0.84375 0,0.33202 -0.12981,0.66404 -0.366164,0.84375 L 9.2166683,12.14875 C 9.0921058,12.24575 8.9466531,12.297 8.7981953,12.305 l -0.1307724,0 -0.7061735,0 0,-8.0000004 0.7061735,0 z" style="color:#000;text-indent:0;text-transform:none;block-progression:tb;fill:#bebebe"/></g><g id="g3398" transform="matrix(1,0,0,0.85694025,23.253022,-3.3396947)"><path id="path3807-1-1-9-3-0-98" d="m -10.338979,9.4915293 0,7.9999997 1.9999997,0 0,-7.9999997 z" style="color:#000;text-indent:0;text-transform:none;block-progression:tb;fill:#bebebe"/><g id="layer12" transform="matrix(0.20069507,0,0,0.13561702,-51.084075,-58.85876)"><path style="color:#bebebe;text-indent:0;text-transform:none;fill:#bebebe" id="path4646-0" d="m 208,499.02 c -2.7496,0 -4.9825,2.2329 -4.9825,4.9825 0,2.7496 2.2329,4.9825 4.9825,4.9825 2.7496,0 4.9825,-2.2329 4.9825,-4.9825 0,-2.7496 -2.2329,-4.9825 -4.9825,-4.9825 z"/></g><g id="layer12-3" transform="matrix(0.20069507,0,0,0.14644128,-51.080782,-56.326641)"><path style="color:#bebebe;text-indent:0;text-transform:none;fill:#bebebe" id="path4646-0-6" d="m 208,499.02 c -2.7496,0 -4.9825,2.2329 -4.9825,4.9825 0,2.7496 2.2329,4.9825 4.9825,4.9825 2.7496,0 4.9825,-2.2329 4.9825,-4.9825 0,-2.7496 -2.2329,-4.9825 -4.9825,-4.9825 z"/></g></g></g></svg>