<svg xmlns="http://www.w3.org/2000/svg" xmlns:svg="http://www.w3.org/2000/svg" id="svg7384" width="16" height="16" version="1.1"><metadata id="metadata90"/><title id="title9167">Gnome Symbolic Icon Theme</title><g id="g3374" transform="translate(0.02196312,0.04289961)"><rect style="color:#000;fill:#bebebe" id="rect4479-2-9-9-0-8-6" width="14.062" height="1.734" x=".947" y="13.176"/><rect style="color:#000;fill:#bebebe" id="rect4479-2-9-9-0-8-6-0" width="14.062" height="2.565" x=".947" y="1.005"/><rect style="color:#000;fill:#bebebe" id="rect4479-2-9-9-0-8-6-6" width="13.899" height="1.733" x="1.005" y="-2.681" transform="matrix(0,1,-1,0,0,0)"/><rect style="color:#000;fill:#bebebe" id="rect4479-2-9-9-0-8-6-6-2" width="13.899" height="1.733" x="1.004" y="-15.009" transform="matrix(0,1,-1,0,0,0)"/><g id="g3350" transform="matrix(0.61492004,-0.6203543,0.6197007,0.61556859,-1.2984433,8.0844732)"><path style="color:#000;text-indent:0;text-transform:none;block-progression:tb;fill:#bebebe" id="path8446" d="m 8.4375,13.853094 5,-5.0000008 0.6875,-0.71875 -0.6875,-0.71875 -5,-5 c 0,11.4375008 0,0 0,11.4375008 z"/><rect style="color:#bebebe;fill:#bebebe" id="rect8450" width="2" height="10.949" x="7.068" y="-12.949" rx="0" ry="0" transform="matrix(0,1,-1,0,0,0)"/></g></g></svg>