<svg xmlns="http://www.w3.org/2000/svg" id="svg7384" width="16" height="16" version="1.1"><metadata id="metadata90"/><title id="title9167">Gnome Symbolic Icon Theme</title><g id="g71291" transform="translate(-521 -519)"><path id="path71360-4" d="m529 520c-3.866 0-7 3.134-7 7s3.134 7 7 7 7-3.134 7-7-3.134-7-7-7zm-2 4c0.55833 0 1.0312 0.47292 1.0312 1.0312v0.96875c0 0.55833-0.47292 1-1.0312 1-0.55833 0-1-0.44167-1-1v-0.96875c0-0.55833 0.44167-1.0312 1-1.0312zm4 0c0.55833 0 1 0.47292 1 1.0312v0.96875c0 0.55833-0.44167 1-1 1s-1-0.44167-1-1v-0.96875c0-0.55833 0.44167-1.0312 1-1.0312zm-2 4.5938c1.0592 0 1.9291 0.9211 1.9375 2.0312 0 1.1164-0.87235 2.0312-1.9375 2.0312s-1.9375-0.91484-1.9375-2.0312 0.87235-2.0312 1.9375-2.0312z" style="fill:#babdb6"/></g></svg>