<svg xmlns="http://www.w3.org/2000/svg" id="svg7384" width="16" height="16" version="1.1"><metadata id="metadata90"/><title id="title9167">Gnome Symbolic Icon Theme</title><g id="g71291" transform="translate(-561.05 -539.19)"><path id="path6081" d="m569.06 540.19c-3.866 0-7 3.134-7 7s3.134 7 7 7 7-3.134 7-7-3.134-7-7-7zm-2 4c0.55833 0 1.0312 0.47292 1.0312 1.0312v0.96875c0 0.55833-0.47292 1-1.0312 1-0.55833 0-1-0.44167-1-1v-0.96875c0-0.55833 0.44167-1.0312 1-1.0312zm4 0c0.55833 0 1 0.47292 1 1.0312v0.96875c0 0.55833-0.44167 1-1 1s-1-0.44167-1-1v-0.96875c0-0.55833 0.44167-1.0312 1-1.0312zm-6.4124 2.7188c0.77942 3.3062 4.693 4.4323 7.7053 3.287 0.007 0.59795-0.19508 1.0972-1.1544 1.2859-2.1655 0.4261-5.1608-0.14239-6.68-2.5933-0.6661-1.0746-0.12703-1.6851 0.12914-1.9797z" style="fill:#babdb6"/></g></svg>