<svg xmlns="http://www.w3.org/2000/svg" id="svg7384" width="16" height="16" version="1.1"><metadata id="metadata90"/><title id="title9167">Gnome Symbolic Icon Theme</title><g id="layer11" transform="translate(-123 -529.03)"><path id="path11106-5" d="m127.96 537.66v2.3661h-3.5909c-0.20663 0-0.3683 0.20498-0.3683 0.46705v1.0585c0 0.26197 0.16167 0.46705 0.3683 0.46705h10.263c0.20664 0 0.36831-0.20508 0.36831-0.46705v-1.0585c0-0.26197-0.16167-0.46705-0.36831-0.46705h-3.655v-2.3661z" style="fill:#bebebe"/><path id="rect11110-4" d="m126.8 529.03c-0.95124 0-1.8 0.79333-1.8 1.7459v6.6134c0 0.95261 0.84875 1.7459 1.8679 1.7459h5.2642c1.0192 0 1.8679-0.79333 1.8679-1.7459v-6.6134c0-0.9526-0.84875-1.7459-1.8679-1.7459zm0.20001 2h5c0.00001 0.31661 0-0.31595 0 0v6h-5v0-6 0z" style="block-progression:tb;text-indent:0;color:#000;text-transform:none;fill:#bebebe"/><rect id="rect11880-7" width="3" height="1.002" x="128" y="532" style="color:#000;fill:#bebebe"/><rect id="rect11882-6" width="1" height="1.002" x="130" y="534" style="color:#000;fill:#bebebe"/><path id="path11106-9" d="m132.23 532.03c0.0701 0 0 0.20877 0 0.47581v1.0783c0 0.26693 0.0701 0.47581 0.15975 0.47581h4.4516c0.0896 0 0.15974-0.20888 0.15974-0.47581v-1.0783c0-0.26693-0.0701-0.47581-0.15974-0.47581-0.15976 0-4.5857 0.0631-4.6113 0z" style="fill:#bebebe"/><path id="path11106-9-7-0" d="m128.97 540.65c0.0792-0.0594 0.25217 0.0384 0.39407 0.22323l0.57302 0.74611c0.14184 0.18469 0.19083 0.37577 0.11162 0.43522-1.3118 0.9846-2.6237 1.9692-3.9356 2.9538-0.0792 0.0594-0.25222-0.0385-0.39407-0.22323l-0.57302-0.74611c-0.14184-0.18469-0.19083-0.37577-0.11162-0.43522 0 0 3.9465-2.8932 3.9356-2.9538z" style="fill:#bebebe"/><path id="path3761-5" d="m130.03 540.65c-0.0792-0.0594-0.25217 0.0384-0.39407 0.22323l-0.57302 0.74611c-0.14184 0.18469-0.19083 0.37577-0.11162 0.43522 1.3118 0.9846 2.6237 1.9692 3.9356 2.9538 0.0792 0.0594 0.25222-0.0385 0.39407-0.22323l0.57302-0.74611c0.14184-0.18469 0.19083-0.37577 0.11162-0.43522 0 0-3.9465-2.8932-3.9356-2.9538z" style="fill:#bebebe"/></g></svg>