<svg xmlns="http://www.w3.org/2000/svg" id="svg7384" width="16.031" height="16.031" version="1.1"><metadata id="metadata90"/><title id="title9167">Gnome Symbolic Icon Theme</title><g id="layer14" transform="translate(-581 -301)"><path id="path3908-61" d="m-174-39.984a2.0156 2.0156 0 1 1 -4.0312 0 2.0156 2.0156 0 1 1 4.0312 0z" transform="translate(759.03 343.03)" style="color:#000;enable-background:new;fill:#bebebe"/><path id="path3910-1" d="m-174-39.984a2.0156 2.0156 0 1 1 -4.0312 0 2.0156 2.0156 0 1 1 4.0312 0z" transform="translate(759.03 354.97)" style="color:#000;enable-background:new;fill:#bebebe"/><path id="path3912" d="m-174-39.984a2.0156 2.0156 0 1 1 -4.0312 0 2.0156 2.0156 0 1 1 4.0312 0z" transform="translate(771.03 354.97)" style="color:#000;enable-background:new;fill:#bebebe"/><path id="path3914" d="m-174-39.984a2.0156 2.0156 0 1 1 -4.0312 0 2.0156 2.0156 0 1 1 4.0312 0z" transform="translate(771.03 343)" style="color:#000;enable-background:new;fill:#bebebe"/><path id="rect3916" d="m582.06 302.06v1 11.969 1h1 11.969 1v-1-11.969-1h-1-11.969-1zm2 2h9.9688v9.9688h-9.9688v-9.9688z" style="block-progression:tb;text-indent:0;color:#000;enable-background:new;text-transform:none;fill:#bebebe"/><path id="rect3918" d="m585.97 306.03v0.5 5 0.5h0.5 5.0625 0.5v-0.5-5-0.5h-0.5-5.0625-0.5zm1 1h4.0625v4h-4.0625v-4z" style="block-progression:tb;text-indent:0;color:#000;enable-background:new;text-transform:none;fill:#bebebe"/><path id="path3937" d="m-166.5-31.766a1.2656 1.2656 0 1 1 -2.5312 0 1.2656 1.2656 0 1 1 2.5312 0z" transform="matrix(1.1975 0 0 1.1975 792.42 349.56)" style="color:#000;enable-background:new;fill:#bebebe"/><path id="path3939" d="m-166.5-31.766a1.2656 1.2656 0 1 1 -2.5312 0 1.2656 1.2656 0 1 1 2.5312 0z" transform="matrix(1.1975 0 0 1.1975 787.42 349.56)" style="color:#000;enable-background:new;fill:#bebebe"/><path id="path3941" d="m-166.5-31.766a1.2656 1.2656 0 1 1 -2.5312 0 1.2656 1.2656 0 1 1 2.5312 0z" transform="matrix(1.1975 0 0 1.1975 787.42 344.59)" style="color:#000;enable-background:new;fill:#bebebe"/><path id="path3943" d="m-166.5-31.766a1.2656 1.2656 0 1 1 -2.5312 0 1.2656 1.2656 0 1 1 2.5312 0z" transform="matrix(1.1975 0 0 1.1975 792.48 344.59)" style="color:#000;enable-background:new;fill:#bebebe"/><path id="path3945" d="m591.88 311.22-0.6875 0.6875 3.4062 3.4375 0.71875-0.71875-3.4375-3.4062z" style="block-progression:tb;text-indent:0;color:#000;enable-background:new;text-transform:none;fill:#bebebe"/><path id="path3949" d="m586.59 311.22-3.4062 3.4062 0.6875 0.71875 3.4375-3.4375-0.71875-0.6875z" style="block-progression:tb;text-indent:0;color:#000;enable-background:new;text-transform:none;fill:#bebebe"/><path id="path3953" d="m594.59 303.22-3.4062 3.4062 0.6875 0.71875 3.4375-3.4375-0.71875-0.6875z" style="block-progression:tb;text-indent:0;color:#000;enable-background:new;text-transform:none;fill:#bebebe"/><path id="path3955" d="m583.88 303.22-0.6875 0.6875 3.4062 3.4375 0.71875-0.71875-3.4375-3.4062z" style="block-progression:tb;text-indent:0;color:#000;enable-background:new;text-transform:none;fill:#bebebe"/></g></svg>