<svg xmlns="http://www.w3.org/2000/svg" id="svg7384" width="16" height="16" version="1.1"><metadata id="metadata90"/><title id="title9167">Gnome Symbolic Icon Theme</title><g id="layer14" transform="translate(-502 -300)"><path id="path1234-2" d="m504 302c-0.52358 0.00005-0.99995 0.47642-1 1v10c0.00005 0.52358 0.47642 0.99995 1 1h3.0001v-2s-1.9929-0.0211-2.0001 0.0001v-8h11l0.00066 7.9999h-1.0006v2h2.0006c0.5193 0 0.9993-0.43501 0.9993-0.99988v-10c0.00075-0.46663-0.43709-1.0001-1-0.9999z" style="block-progression:tb;text-indent:0;color:#000;text-transform:none;fill:#bebebe"/><path id="path4136-5" d="m514 308.06a3 3 0 0 1 -5.9987 0 3 3 0 1 1 5.9987 0z" style="fill:#bebebe"/><path id="path3655-4-1" d="m510 309-2.0002 7h1l2.0002-2 1.9998 2h1l-1.9999-7" style="fill:#bebebe;fill-rule:evenodd"/></g></svg>