<svg xmlns="http://www.w3.org/2000/svg" id="svg7384" width="16" height="16" version="1.1"><metadata id="metadata90"/><title id="title9167">Gnome Symbolic Icon Theme</title><g id="layer14" transform="translate(-541 -301)"><path id="rect27790" d="m543 301c-1.0524 0-2 0.84508-2 1.9375v11.125c0 1.0924 0.94763 1.9375 2 1.9375h11c1.0524 0 2-0.84508 2-1.9375v-11.125c0-1.0924-0.94763-1.9375-2-1.9375h-11zm0 5h3.0312v2h-3.0312v-2zm4.0312 0h2.9688v2h-2.9688v-2zm3.9688 0h3v2h-3v-2zm-8 3h3.0312v2h-3.0312v-2zm4.0312 0h2.9688v2h-2.9688v-2zm3.9688 0h3v2h-3v-2zm-8 3h3.0312v2h-3.0312v-2zm4.0312 0h2.9688v2h-2.9688v-2zm3.9688 0h3v2h-3v-2z" style="block-progression:tb;text-indent:0;color:#000;enable-background:new;text-transform:none;fill:#bebebe"/><rect id="rect27810" width="3" height="2" x="551" y="309" style="opacity:.35;color:#000;fill:#bebebe"/></g></svg>