<svg xmlns="http://www.w3.org/2000/svg" xmlns:svg="http://www.w3.org/2000/svg" id="svg4460" width="24" height="24" version="1.1"><metadata id="metadata4465"/><g id="layer1" transform="translate(0,-1028.3622)"><g style="display:inline" id="airport-24" transform="translate(-84,-22)"><g id="g6678" transform="translate(84,-2)"><g id="g14771"><path style="opacity:.3;color:#000;fill:none;stroke:#fff;stroke-width:2;stroke-linecap:round;stroke-linejoin:round;stroke-miterlimit:4;stroke-opacity:1;stroke-dasharray:none;stroke-dashoffset:0;marker:none;visibility:visible;display:inline;overflow:visible;enable-background:accumulate" id="path14304" d="m 21,1065.3622 0,1 -7,-1 0,0.031 0,3.9688 2,2.0002 c 0,0.5 -0.5,1 -1,1 -2,0 -5,0 -5,0 -0.5,0 -1,-0.5 -1,-1 l 2,-2.0002 0,-4 -7,1 0,-1 7,-4 c 0,0 0,-0.3333 0,-2 0,-1 0.5,-4 1.5,-4 1,0 1.5,3 1.5,4 0,1.6667 0,2 0,2 z"/><path id="path7712" d="m 21,1065.8622 0,0.5 -7,-1 0,3.9998 2,2.0002 c 0,0.5 -0.5,1 -1,1 -2,0 -5,0 -5,0 -0.5,0 -1,-0.5 -1,-1 l 2,-2.0002 0,-4 -7,1 0,-0.4998 c 0,-0.5 0.3056731,-0.6379 0.5,-0.75 l 6.5,-3.7502 c 0,0 0,-0.3333 0,-2 0,-1 0.5,-4 1.5,-4 1,0 1.5,3 1.5,4 0,1.6667 0,2 0,2 l 6.5,3.7502 c 0.27841,0.1606 0.5,0.2411 0.5,0.75 z" style="fill:#444;fill-opacity:1;stroke:none;display:inline"/></g></g><rect style="opacity:.5;color:#000;fill:none;stroke:none;stroke-width:2;marker:none;visibility:visible;display:inline;overflow:visible;enable-background:accumulate" id="rect22075-7" width="24" height="24" x="84" y="1050.362"/></g></g></svg>