<svg xmlns="http://www.w3.org/2000/svg" xmlns:svg="http://www.w3.org/2000/svg" id="svg4460" width="24" height="24" version="1.1"><metadata id="metadata4465"/><g id="layer1" transform="translate(0,-1028.3622)"><g style="display:inline" id="building-24" transform="translate(-630.00002,-45.999983)"><path id="path6138" d="m 641,1077.3622 -7.5,6.5 c -0.3561,0.3086 -0.5,0.5 -0.5,0.75 0,0.4959 0.5,0.75 1,0.75 l 1,0 0,8 c 0,0.554 0.446,1 1,1 l 6.5,0 6.5,0 c 0.554,0 1,-0.446 1,-1 l 0,-8 1,0 c 0.5,0 1,-0.2541 1,-0.75 0,-0.25 -0.13799,-0.4483 -0.5,-0.75 l -7.5,-6.5 z" style="opacity:.3;color:#000;fill:#fff;fill-opacity:1;fill-rule:nonzero;stroke:#fff;stroke-width:2;stroke-linecap:butt;stroke-linejoin:round;stroke-miterlimit:4;stroke-opacity:1;stroke-dasharray:none;stroke-dashoffset:0;marker:none;visibility:visible;display:inline;overflow:visible;enable-background:accumulate"/><rect id="rect5877" width="24" height="24" x="630" y="1074.362" style="opacity:.5;color:#000;fill:none;stroke:none;stroke-width:2;marker:none;visibility:visible;display:inline;overflow:visible;enable-background:accumulate"/><path style="color:#000;fill:#444;fill-opacity:1;fill-rule:nonzero;stroke:none;stroke-width:1;marker:none;visibility:visible;display:inline;overflow:visible;enable-background:accumulate" id="path5881" d="m 641,1077.3622 -7.5,6.5 c -0.3561,0.3086 -0.5,0.5 -0.5,0.75 0,0.4959 0.5,0.75 1,0.75 l 1,0 0,8 c 0,0.554 0.446,1 1,1 l 6.5,0 6.5,0 c 0.554,0 1,-0.446 1,-1 l 0,-8 1,0 c 0.5,0 1,-0.2541 1,-0.75 0,-0.25 -0.13799,-0.4483 -0.5,-0.75 l -7.5,-6.5 z"/></g></g></svg>