<svg xmlns="http://www.w3.org/2000/svg" xmlns:svg="http://www.w3.org/2000/svg" id="svg4460" width="24" height="24" version="1.1"><metadata id="metadata4465"/><g id="layer1" transform="translate(0,-1028.3622)"><g style="display:inline" id="town-24" transform="translate(-630,-262)"><path id="path9470" d="m 638,1296.3622 -3,1.5 c -0.51116,0.2556 -1,1 -1,1.5 l 0,8 3,0 0,-3 2,0 0,3 3,0 0,-8 c 0,-0.5 -0.50201,-1.251 -1,-1.5 l -3,-1.5 z m 9,2 -3,1.5 c -0.51116,0.2556 -1,1 -1,1.5 l 0,8 3,0 0,-3 2,0 0,3 3,0 0,-8 c 0,-0.5 -0.50201,-1.251 -1,-1.5 l -3,-1.5 z m -12,2 2,0 0,1 -2,0 0,-1 z m 4,0 2,0 0,1 -2,0 0,-1 z m -4,2 2,0 0,1 -2,0 0,-1 z m 4,0 2,0 0,1 -2,0 0,-1 z m 5,0 2,0 0,1 -2,0 0,-1 z m 4,0 2,0 0,1 -2,0 0,-1 z m -4,2 2,0 0,1 -2,0 0,-1 z m 4,0 2,0 0,1 -2,0 0,-1 z" style="opacity:.3;color:#000;fill:#fff;fill-opacity:1;fill-rule:nonzero;stroke:#fff;stroke-width:2;stroke-linecap:round;stroke-linejoin:round;stroke-miterlimit:4;stroke-opacity:1;stroke-dasharray:none;stroke-dashoffset:0;marker:none;visibility:visible;display:inline;overflow:visible;enable-background:accumulate"/><path style="color:#000;fill:#444;fill-opacity:1;fill-rule:nonzero;stroke:none;stroke-width:.46545455;marker:none;visibility:visible;display:inline;overflow:visible;enable-background:accumulate" id="path9357" d="m 638,1296.3622 -3,1.5 c -0.51116,0.2556 -1,1 -1,1.5 l 0,8 3,0 0,-3 2,0 0,3 3,0 0,-8 c 0,-0.5 -0.50201,-1.251 -1,-1.5 l -3,-1.5 z m 9,2 -3,1.5 c -0.51116,0.2556 -1,1 -1,1.5 l 0,8 3,0 0,-3 2,0 0,3 3,0 0,-8 c 0,-0.5 -0.50201,-1.251 -1,-1.5 l -3,-1.5 z m -12,2 2,0 0,1 -2,0 0,-1 z m 4,0 2,0 0,1 -2,0 0,-1 z m -4,2 2,0 0,1 -2,0 0,-1 z m 4,0 2,0 0,1 -2,0 0,-1 z m 5,0 2,0 0,1 -2,0 0,-1 z m 4,0 2,0 0,1 -2,0 0,-1 z m -4,2 2,0 0,1 -2,0 0,-1 z m 4,0 2,0 0,1 -2,0 0,-1 z"/><rect id="rect7325-2-7-0" width="24" height="24" x="630" y="1290.362" style="opacity:.5;color:#000;fill:none;stroke:none;stroke-width:2;marker:none;visibility:visible;display:inline;overflow:visible;enable-background:accumulate"/></g></g></svg>