<svg xmlns="http://www.w3.org/2000/svg" xmlns:svg="http://www.w3.org/2000/svg" id="svg4460" width="24" height="24" version="1.1"><metadata id="metadata4465"/><g id="layer1" transform="translate(0,-1028.3622)"><g style="display:inline" id="marker-24" transform="translate(72,-262)"><g id="g15422" transform="translate(0,33)"><path style="opacity:.3;color:#000;fill:#fff;fill-opacity:1;fill-rule:nonzero;stroke:#fff;stroke-width:2;stroke-linecap:butt;stroke-linejoin:round;stroke-miterlimit:4;stroke-opacity:1;stroke-dasharray:none;stroke-dashoffset:0;marker:none;visibility:visible;display:inline;overflow:visible;enable-background:accumulate" id="path15235" d="m -53,1266.8622 c 0,3.5 -5,9.5 -6.5,11.5 -1.5,-2 -6.5,-8 -6.5,-11.5 0,-3.5 3.27126,-6.5 6.5,-6.5 3.22874,0 6.5,3 6.5,6.5 z"/><g style="display:inline" id="marker-15-7-6-8-1" transform="translate(-173.99314,956.00001)"><path id="path7962-4-3-5-3" d="m 120.99314,310.86219 c 0,3.5 -5,9.5 -6.5,11.5 -1.5,-2 -6.5,-8 -6.5,-11.5 0,-3.5 3.27126,-6.5 6.5,-6.5 3.22874,0 6.5,3 6.5,6.5 z" style="color:#000;fill:#444;fill-opacity:1;fill-rule:nonzero;stroke:none;stroke-width:2;marker:none;visibility:visible;display:inline;overflow:visible;enable-background:accumulate"/></g></g><rect style="opacity:.5;color:#000;fill:none;stroke:none;stroke-width:2;marker:none;visibility:visible;display:inline;overflow:visible;enable-background:accumulate" id="rect22081" width="24" height="24" x="-72" y="1290.362"/></g></g></svg>