<svg xmlns="http://www.w3.org/2000/svg" id="svg7384" width="16" height="16" version="1.1"><metadata id="metadata90"/><title id="title9167">Gnome Symbolic Icon Theme</title><g id="layer9" transform="translate(-101 -317)"><rect id="rect5434" width="2.972" height="2" x="101" y="327" rx=".472" ry=".5" style="color:#bebebe;enable-background:new;fill:#bebebe"/><rect id="rect5436" width="3.017" height="2" x="113.98" y="327" rx=".5" ry=".5" style="color:#bebebe;enable-background:new;fill:#bebebe"/><rect id="rect11183" width="3.017" height="2" x="-149.87" y="308.01" rx=".5" ry=".5" transform="rotate(-45)" style="color:#bebebe;enable-background:new;fill:#bebebe"/><rect id="rect11189" width="3.017" height="2" x="-304.02" y="-155.86" rx=".5" ry=".5" transform="rotate(225)" style="color:#bebebe;enable-background:new;fill:#bebebe"/><rect id="rect5448" width="3" height="2" x="-323" y="108" rx=".5" ry=".5" transform="rotate(-90)" style="color:#bebebe;enable-background:new;fill:#bebebe"/><path id="path7977" d="m107.25 326c-0.16704 0.009-0.32215 0.11722-0.37496 0.26083l-0.83643 2.217c-0.10137 0.23354 0.12645 0.52786 0.4038 0.52166 0 0 1.0705 0.00012 2.567 0.00012s2.567-0.00012 2.567-0.00012c0.27735 0.006 0.50517-0.28812 0.4038-0.52166l-0.83643-2.217c-0.0727-0.19298-0.33686-0.30615-0.54801-0.23475-0.21274 0.0692-0.82049 0.26083-1.5863 0.26083-0.76585 0-1.3736-0.19167-1.5863-0.26083-0.0548-0.0194-0.11421-0.0284-0.17305-0.026z" style="color:#000;fill:#bebebe"/></g></svg>