<svg xmlns="http://www.w3.org/2000/svg" id="svg7384" width="16" height="16" version="1.1"><metadata id="metadata90"/><title id="title9167">Gnome Symbolic Icon Theme</title><g id="layer9" transform="translate(-161 -277)"><path id="path5375" d="m173 280c-1.6447 0-3 1.3553-3 3v4c0 0.5713-0.4287 1-1 1h-6v2h6c1.6447 0 3-1.3553 3-3v-4c0-0.5713 0.4287-1 1-1h3v-2h-3z" style="block-progression:tb;text-indent:0;color:#bebebe;text-transform:none;fill:#bebebe"/><path id="path5377" d="m164.88 286a1.0001 1.0001 0 0 0 -0.59375 0.28125l-2 2-0.6875 0.71875 0.6875 0.71875 2 2a1.0165 1.0165 0 1 0 1.4375 -1.4375l-1.29-1.28 1.2812-1.2812a1.0001 1.0001 0 0 0 -0.84 -1.72z" style="block-progression:tb;text-indent:0;color:#bebebe;text-transform:none;fill:#bebebe"/><path id="path5379" d="m164.88 278a1.0001 1.0001 0 0 0 -0.59375 0.28125l-2 2-0.6875 0.71875 0.6875 0.71875 2 2a1.0165 1.0165 0 1 0 1.4375 -1.4375l-1.29-1.28 1.2812-1.2812a1.0001 1.0001 0 0 0 -0.84 -1.72z" style="block-progression:tb;text-indent:0;color:#bebebe;text-transform:none;fill:#bebebe"/><path id="path5381" d="m169 280c0.22957 0 0.44085 0.0438 0.65625 0.0937-0.4813 0.5511-0.86125 1.1776-1.0312 1.9062h-5.625v-2h6zm7 8v2h-3c-0.22957 0-0.44085-0.0438-0.65625-0.0937 0.4813-0.55115 0.86125-1.1777 1.0312-1.9063h2.625z" style="color:#bebebe;text-indent:0;text-transform:none;fill:#bebebe"/><rect id="rect5383" width="1" height="1" x="-166" y="286" transform="scale(-1,1)" style="color:#000;fill:#bebebe"/><rect id="rect5385" width="1" height="1" x="-166" y="291" transform="scale(-1,1)" style="color:#000;fill:#bebebe"/><rect id="rect5387" width="1" height="1" x="-166" y="278" transform="scale(-1,1)" style="color:#000;fill:#bebebe"/><rect id="rect5389" width="1" height="1" x="-166" y="283" transform="scale(-1,1)" style="color:#000;fill:#bebebe"/></g></svg>