<svg xmlns="http://www.w3.org/2000/svg" id="svg7384" width="16" height="16.001" version="1.1"><metadata id="metadata90"/><title id="title9167">Gnome Symbolic Icon Theme</title><defs id="defs7386"><clipPath id="clipPath6810-7-87" clipPathUnits="userSpaceOnUse"><rect id="rect6812-2-4" width="14" height="11" x="21" y="281" style="stroke-linejoin:round;color:#bebebe;stroke:#fff;stroke-linecap:round;stroke-width:2;fill:none"/></clipPath></defs><g id="layer9" transform="translate(-121,-197)"><rect id="rect12235" width="5" height="10.013" x="124" y="197.99" rx="2.5" ry="2.5" style="color:#bebebe;fill:#bebebe"/><path id="rect12237" d="m27.969 273.62c-2.5025 0-4.5312 2.0288-4.5312 4.5312v5.8125c0 2.5025 2.0288 4.5312 4.5312 4.5312 2.5025 0 4.5312-2.0288 4.5312-4.5312v-5.8125c0-2.5025-2.0288-4.5312-4.5312-4.5312zm0 1c1.9641 0 3.5312 1.5671 3.5312 3.5312v5.8125c0 1.9642-1.5671 3.5312-3.5312 3.5312s-3.5312-1.5671-3.5312-3.5312v-5.8125c0-1.9642 1.5671-3.5312 3.5312-3.5312z" clip-path="url(#clipPath6810-7-87)" transform="matrix(.99397 0 0 1 98.707 -78.486)" style="block-progression:tb;text-indent:0;color:#bebebe;text-transform:none;fill:#bebebe"/><path id="path12239" d="m24 361a1 1 0 1 1 -2 0 1 1 0 1 1 2 0z" transform="matrix(.5 0 0 .5 111 22)" style="color:#bebebe;fill:#bebebe"/><path id="path12241" d="m24 361a1 1 0 1 1 -2 0 1 1 0 1 1 2 0z" transform="matrix(.5 0 0 .5 119 22)" style="color:#bebebe;fill:#bebebe"/><path id="path12243" d="m122.91 211a1.0011 1.0011 0 1 0 0.09 2h7a1.0001 1.0001 0 1 0 0 -2h-7a1.0001 1.0001 0 0 0 -0.0937 0z" style="block-progression:tb;text-indent:0;color:#bebebe;text-transform:none;fill:#bebebe"/><rect id="rect12245" width="9" height="1" x="122" y="212" style="color:#bebebe;fill:#bebebe"/><rect id="rect12247" width="3" height="4" x="125" y="209" style="color:#bebebe;fill:#bebebe"/><path id="path12249" d="m134 197.99c-1.0986 0-2.0081 0.90942-2.0081 2.0081 0 1.0986 0.90941 2.0081 2.0081 2.0081 1.0986 0 2.0081-0.90941 2.0081-2.0081 0-1.0986-0.90941-2.0081-2.0081-2.0081zm0 1.0161c0.55821 0 0.99193 0.43373 0.99193 0.99194s-0.43372 0.99193-0.99193 0.99193-0.99193-0.43372-0.99193-0.99193 0.43372-0.99194 0.99193-0.99194z" style="opacity:.5;block-progression:tb;text-indent:0;color:#000;text-transform:none;fill:#bebebe"/><path id="path12253" d="m134 202.99c-1.0986 0-2.0081 0.90941-2.0081 2.0081 0 1.0986 0.90941 2.0081 2.0081 2.0081 1.0986 0 2.0081-0.90942 2.0081-2.0081 0-1.0986-0.90942-2.0081-2.0081-2.0081zm0 1.0161c0.55821 0 0.99194 0.43373 0.99194 0.99193 0 0.55821-0.43373 0.99194-0.99194 0.99194s-0.99193-0.43373-0.99193-0.99194c0-0.5582 0.43372-0.99193 0.99193-0.99193z" style="opacity:.5;block-progression:tb;text-indent:0;color:#000;text-transform:none;fill:#bebebe"/><path id="path3761-2-3-5-4-8-9-8-0-9-0-4" d="m132 208h1.375l1.125 1.0938 1.0938-1.0938h1.4062v1.4688l-1.0938 1.0625 1.0938 1.0625v1.4062h-1.4375l-1.0625-1.0625-1.0625 1.0625h-1.4375v-1.4062l1.0625-1.0625-1.0625-1.0625v-1.4688z" style="color:#bebebe;fill:#bebebe"/></g></svg>