<svg xmlns="http://www.w3.org/2000/svg" id="svg7384" width="16" height="16.001" version="1.1"><metadata id="metadata90"/><title id="title9167">Gnome Symbolic Icon Theme</title><defs id="defs7386"><clipPath id="clipPath6810-7-87" clipPathUnits="userSpaceOnUse"><rect id="rect6812-2-4" width="14" height="11" x="21" y="281" style="stroke-linejoin:round;color:#bebebe;stroke:#fff;stroke-linecap:round;stroke-width:2;fill:none"/></clipPath></defs><g id="layer9" transform="translate(-141,-197)"><path id="path8179" d="m154 198c-1.1046 0-2 0.89543-2 2s0.89543 2 2 2 2-0.89543 2-2-0.89543-2-2-2zm0 1c0.55228 0 1 0.44771 1 1 0 0.55228-0.44772 1-1 1-0.55229 0-1-0.44772-1-1 0-0.55229 0.44771-1 1-1z" style="opacity:.5;color:#000;fill:#bebebe"/><rect id="rect12259" width="5" height="10" x="144" y="198" rx="2.5" ry="2.5" style="color:#bebebe;fill:#bebebe"/><path id="rect12261" d="m27.969 273.62c-2.5025 0-4.5312 2.0288-4.5312 4.5312v5.8125c0 2.5025 2.0288 4.5312 4.5312 4.5312 2.5025 0 4.5312-2.0288 4.5312-4.5312v-5.8125c0-2.5025-2.0288-4.5312-4.5312-4.5312zm0 1c1.9641 0 3.5312 1.5671 3.5312 3.5312v5.8125c0 1.9642-1.5671 3.5312-3.5312 3.5312s-3.5312-1.5671-3.5312-3.5312v-5.8125c0-1.9642 1.5671-3.5312 3.5312-3.5312z" clip-path="url(#clipPath6810-7-87)" transform="matrix(.99397 0 0 1 118.71 -78.486)" style="block-progression:tb;text-indent:0;color:#bebebe;text-transform:none;fill:#bebebe"/><path id="path12263" d="m24 361a1 1 0 1 1 -2 0 1 1 0 1 1 2 0z" transform="matrix(.5 0 0 .5 131 22)" style="color:#bebebe;fill:#bebebe"/><path id="path12265" d="m24 361a1 1 0 1 1 -2 0 1 1 0 1 1 2 0z" transform="matrix(.5 0 0 .5 139 22)" style="color:#bebebe;fill:#bebebe"/><path id="path12267" d="m142.91 211a1.0011 1.0011 0 1 0 0.09 2h7a1.0001 1.0001 0 1 0 0 -2h-7a1.0001 1.0001 0 0 0 -0.0937 0z" style="block-progression:tb;text-indent:0;color:#bebebe;text-transform:none;fill:#bebebe"/><rect id="rect12269" width="9" height="1" x="142" y="212" style="color:#bebebe;fill:#bebebe"/><rect id="rect12271" width="3" height="4" x="145" y="209" style="color:#bebebe;fill:#bebebe"/><path id="path12275" d="m-186.06 184.06a1.9375 1.9375 0 1 1 -3.875 0 1.9375 1.9375 0 1 1 3.875 0z" transform="matrix(1.0323 0 0 1.0323 348.06 20.001)" style="color:#000;fill:#bebebe"/><path id="path8174" d="m154 203c-1.1046 0-2 0.89543-2 2s0.89543 2 2 2 2-0.89543 2-2-0.89543-2-2-2zm0 1c0.55228 0 1 0.44771 1 1 0 0.55228-0.44772 1-1 1s-1-0.44772-1-1c0-0.55229 0.44772-1 1-1z" style="opacity:.5;color:#000;fill:#bebebe"/></g></svg>