<svg xmlns="http://www.w3.org/2000/svg" id="svg7384" width="16" height="16.002" version="1.1"><metadata id="metadata90"/><title id="title9167">Gnome Symbolic Icon Theme</title><defs id="defs7386"><clipPath id="clipPath6810-7-87" clipPathUnits="userSpaceOnUse"><rect id="rect6812-2-4" width="14" height="11" x="21" y="281" style="stroke-linejoin:round;color:#bebebe;stroke:#fff;stroke-linecap:round;stroke-width:2;fill:none"/></clipPath></defs><g id="layer9" transform="translate(-181,-197)"><rect id="rect12327" width="5" height="10.013" x="184" y="197.99" rx="2.5" ry="2.5" style="color:#bebebe;fill:#bebebe"/><path id="rect12329" d="m27.969 273.62c-2.5025 0-4.5312 2.0288-4.5312 4.5312v5.8125c0 2.5025 2.0288 4.5312 4.5312 4.5312 2.5025 0 4.5312-2.0288 4.5312-4.5312v-5.8125c0-2.5025-2.0288-4.5312-4.5312-4.5312zm0 1c1.9641 0 3.5312 1.5671 3.5312 3.5312v5.8125c0 1.9642-1.5671 3.5312-3.5312 3.5312s-3.5312-1.5671-3.5312-3.5312v-5.8125c0-1.9642 1.5671-3.5312 3.5312-3.5312z" clip-path="url(#clipPath6810-7-87)" transform="matrix(.99397 0 0 1 158.71 -78.486)" style="block-progression:tb;text-indent:0;color:#bebebe;text-transform:none;fill:#bebebe"/><path id="path12331" d="m24 361a1 1 0 1 1 -2 0 1 1 0 1 1 2 0z" transform="matrix(.5 0 0 .5 171 22)" style="color:#bebebe;fill:#bebebe"/><path id="path12333" d="m24 361a1 1 0 1 1 -2 0 1 1 0 1 1 2 0z" transform="matrix(.5 0 0 .5 179 22)" style="color:#bebebe;fill:#bebebe"/><path id="path12335" d="m182.88 211a1.002 1.002 0 1 0 0.125 2h7.0312a1.0001 1.0001 0 1 0 0 -2h-7.03a1.0001 1.0001 0 0 0 -0.125 0z" style="block-progression:tb;text-indent:0;color:#bebebe;text-transform:none;fill:#bebebe"/><rect id="rect12337" width="9" height="1" x="182" y="212" style="color:#bebebe;fill:#bebebe"/><rect id="rect12339" width="3" height="4" x="185" y="209" style="color:#bebebe;fill:#bebebe"/><path id="path12343" d="m-186.06 184.06a1.9375 1.9375 0 1 1 -3.875 0 1.9375 1.9375 0 1 1 3.875 0z" transform="matrix(1.0323 0 0 1.0323 388.06 20.001)" style="color:#000;fill:#bebebe"/><path id="path12345" d="m-186.06 184.06a1.9375 1.9375 0 1 1 -3.875 0 1.9375 1.9375 0 1 1 3.875 0z" transform="matrix(1.0323 0 0 1.0323 388.06 15.001)" style="color:#000;fill:#bebebe"/><path id="path12347" d="m-186.06 184.06a1.9375 1.9375 0 1 1 -3.875 0 1.9375 1.9375 0 1 1 3.875 0z" transform="matrix(1.0323 0 0 1.0323 388.06 10.001)" style="color:#000;fill:#bebebe"/></g></svg>