<svg xmlns="http://www.w3.org/2000/svg" id="svg7384" width="16" height="16" version="1.1"><metadata id="metadata90"/><title id="title9167">Gnome Symbolic Icon Theme</title><g id="layer9" transform="translate(-181.03 -397)"><path id="rect4897-9-4" d="m183.5 398s-1.5 0-1.5 1.5v11.969s0 1.5312 1.5 1.5312h7.5v-2h-7v-11h1v-2zm8.5 0v2h1v7h2v-7.5c0-1.5-1.5-1.5-1.5-1.5z" style="fill:#bebebe"/><rect id="rect4899-7-8" width="4.969" height="4" x="186.03" y="397" rx=".5" ry=".5" style="fill:#bebebe"/><path id="path3761-2-3-5-4-8-9-8-9-9-0-6" d="m192 408h1.375l1.125 1.0938 1.09-1.09h1.41v1.4688l-1.0938 1.0625 1.09 1.06v1.41h-1.44l-1.06-1.06-1.06 1.06h-1.44v-1.4062l1.0625-1.0625-1.06-1.06v-1.47z" style="color:#bebebe;fill:#bebebe"/></g></svg>