<svg xmlns="http://www.w3.org/2000/svg" id="svg7384" width="16" height="16" version="1.1"><metadata id="metadata90"/><title id="title9167">Gnome Symbolic Icon Theme</title><g id="layer9" transform="translate(-141 -357)"><path id="path8342" d="m154 372v-4.5h-3.5z" style="fill:#bebebe"/><path id="rect8347" d="m144.5 358c-1.385 0-2.5 1.115-2.5 2.5v5c0 1.385 1.115 2.5 2.5 2.5h9c1.385 0 2.5-1.115 2.5-2.5v-5c0-1.385-1.115-2.5-2.5-2.5h-9zm4.5 2h1c0.27614 0 0.53779 0.10029 0.71875 0.28125l2 2 0.6875 0.71875-0.6875 0.71875-2 2c-0.18 0.18-0.44 0.28-0.72 0.28h-1v-1c0-0.27614 0.10029-0.53779 0.28125-0.71875l0.28-0.28h-4.5625v-2h4.5625l-0.28125-0.28125c-0.18-0.18-0.28-0.44-0.28-0.72v-1z" style="fill:#bebebe"/></g></svg>