<svg xmlns="http://www.w3.org/2000/svg" id="svg7384" width="16" height="16" version="1.1"><metadata id="metadata90"/><title id="title9167">Gnome Symbolic Icon Theme</title><g id="layer9" transform="translate(-141 -297)"><path id="path5446" d="m142.78 302a1.0001 1.0001 0 0 0 -0.5 1.7188l2 2 0.71875 0.6875 0.71875-0.6875 2-2a1.0165 1.0165 0 1 0 -1.4375 -1.4375l-1.28 1.28-1.28-1.28a1.0001 1.0001 0 0 0 -0.94 -0.28z" style="block-progression:tb;text-indent:0;color:#000;text-transform:none;fill:#bebebe"/><path id="path5448" d="m147 298c-1.6447 0-3 1.3553-3 3v4h2v-4c0-0.5713 0.4287-1 1-1h4c0.5713 0 1 0.4287 1 1v8c0 0.5713-0.4287 1-1 1h-4v2h4c1.6447 0 3-1.3553 3-3v-8c0-1.6447-1.3553-3-3-3h-4z" style="block-progression:tb;text-indent:0;color:#000;text-transform:none;fill:#bebebe"/><rect id="rect5450" width="1" height="1" x="-303" y="-148" transform="matrix(0,-1,-1,0,0,0)" style="color:#000;fill:#bebebe"/><rect id="rect5452" width="1" height="1" x="-303" y="-143" transform="matrix(0,-1,-1,0,0,0)" style="color:#000;fill:#bebebe"/></g></svg>