<svg xmlns="http://www.w3.org/2000/svg" id="svg7384" width="16" height="16" version="1.1"><metadata id="metadata90"/><title id="title9167">Gnome Symbolic Icon Theme</title><g id="layer9" transform="translate(-121,-277)"><path id="path552" d="m129 280c-2.7496 0-5 2.2504-5 5 0 1.7833 0.9576 3.3626 2.375 4.25 0.16853-0.0758 0.34883-0.13986 0.53125-0.1875 0.22859-1.8167 1.7194-3.25 3.5938-3.25 1.0025 0 1.8385 0.47365 2.5 1.125 0.175-0.0333 0.30776-0.125 0.5-0.125 0.0432 0 0.0823-0.002 0.125 0 0.22408-0.56633 0.375-1.1698 0.375-1.8125 0-2.7496-2.2504-5-5-5z" style="block-progression:tb;text-indent:0;color:#bebebe;enable-background:new;text-transform:none;fill:#bebebe"/><g id="g4927" transform="translate(40)"><rect id="rect4906" width="2" height="2" x="81" y="284" rx=".563" ry=".563" style="color:#bebebe;enable-background:new;fill:#bebebe"/><rect id="rect4906-4" width="2" height="2" x="95" y="284" rx=".563" ry=".563" style="color:#bebebe;enable-background:new;fill:#bebebe"/></g><g id="use4998" transform="matrix(0,1,-1,0,414,196)"><rect id="rect4088" width="2" height="2" x="81" y="284" rx=".563" ry=".563" style="color:#bebebe;enable-background:new;fill:#bebebe"/></g><g id="use4998-8" transform="matrix(-.70711 .70711 -.70711 -.70711 393.46 423.59)" style="color:#000"><rect id="rect4075" width="2" height="2" x="81" y="284" rx=".563" ry=".563" style="color:#bebebe;enable-background:new;fill:#bebebe"/><rect id="rect4077" width="2" height="2" x="95" y="284" rx=".563" ry=".563" style="color:#bebebe;enable-background:new;fill:#bebebe"/></g><g id="use4998-2" transform="matrix(.70711 .70711 -.70711 .70711 267.59 20.542)"><rect id="rect4081" width="2" height="2" x="81" y="284" rx=".563" ry=".563" style="color:#bebebe;enable-background:new;fill:#bebebe"/></g><g id="g5609" transform="translate(-60,-39)"><path id="path5094-5-03" d="m190.5 326c-1.3807 0-2.5 1.1193-2.5 2.5 0 0.21842 0.0411 0.42306 0.0937 0.625-0.18-0.07-0.38-0.12-0.59-0.12-0.82843 0-1.5 0.67157-1.5 1.5s0.67157 1.5 1.5 1.5h8c0.82843 0 1.5-0.67157 1.5-1.5s-0.67157-1.5-1.5-1.5c0-1.1046-0.89543-2-2-2-0.31572 0-0.60948 0.0885-0.875 0.21875-0.43-0.73-1.21-1.22-2.12-1.22z" style="color:#000;fill:#bebebe"/></g></g></svg>