<svg xmlns="http://www.w3.org/2000/svg" xmlns:svg="http://www.w3.org/2000/svg" id="svg8" width="7mm" height="6mm" version="1.1" viewBox="0 0 7 6"><metadata id="metadata5"/><g id="layer1" transform="translate(0.00468177,-0.01050555)"><g id="g4537" transform="translate(-0.00468177,0.01050555)"><path style="fill:#000;fill-opacity:0" id="path4529" d="M 0,0.5 V 0 H 0.5 1 1.5 2 2.5 3 L 2.875,0.375 Q 2.75,0.75 2.5,1 2.25,1.25 2,1.5 1.75,1.75 1.5,2 1.25,2.25 1,2.5 0.75,2.75 0.375,2.875 L 0,3 V 2.5 2 1.5 1 0.5"/><path style="fill:#fff;fill-opacity:1" id="path4531" d="m 3.5,3.2e-7 c 0,0 0,0 3.5,2.99999998 0,1.154448 0,1.9621581 0,3 C 3.5,3.2583525 3.5,3.2583525 3.5,3.2583525 c 0,0 0,0 -3.49999998,2.7416478 0,-1.1544481 0,-1.9621581 0,-3"/><path style="fill:#000;fill-opacity:0" id="path4533" d="M 4.125,0.375 4,0 H 4.5 5 5.5 6 6.5 7 V 0.5 1 1.5 2 2.5 3 L 6.625,2.875 Q 6.25,2.75 6,2.5 5.75,2.25 5.5,2 5.25,1.75 5,1.5 4.75,1.25 4.5,1 4.25,0.75 4.125,0.375"/><path style="fill:#000;fill-opacity:0" id="path4535" d="M 3,3.5 Q 3.25,3.25 3.5,3.25 3.75,3.25 4,3.5 4.25,3.75 4.5,4 4.75,4.25 5,4.5 5.25,4.75 5.5,5 5.75,5.25 5.875,5.625 L 6,6 H 5.5 5 4.5 4 3.5 3 2.5 2 1.5 1 L 1.125,5.625 Q 1.25,5.25 1.5,5 1.75,4.75 2,4.5 2.25,4.25 2.5,4 2.75,3.75 3,3.5"/></g></g></svg>