<svg xmlns="http://www.w3.org/2000/svg" id="svg7384" width="16" height="16" version="1.1"><metadata id="metadata90"/><title id="title9167">Gnome Symbolic Icon Theme</title><g id="layer15" transform="translate(-542 -382)"><path id="rect4513" d="m544 382c-1.0907 0-2 0.9093-2 2v9c0 1.0907 0.9093 2 2 2h7c1.0907 0 2-0.9093 2-2v-9c0-1.0907-0.9093-2-2-2h-7zm0 2h7v9h-7v-9z" style="block-progression:tb;text-indent:0;color:#000;enable-background:new;text-transform:none;fill:#bebebe"/><path id="rect4513-9" d="m554 385v2h1v9h-3-4-2c0 1.0907 0.9093 2 2 2h7c1.0907 0 2-0.9093 2-2v-9c0-1.0907-0.9093-2-2-2z" style="block-progression:tb;text-indent:0;color:#000;enable-background:new;text-transform:none;fill:#bebebe"/><rect id="rect5313" width="4" height="1" x="545" y="385" rx=".5" ry=".5" style="color:#000;enable-background:new;fill:#bebebe"/><rect id="rect5313-6" width="5" height="1" x="545" y="387" rx=".5" ry=".5" style="color:#000;enable-background:new;fill:#bebebe"/><rect id="rect5313-6-0" width="3" height="1" x="545" y="389" rx=".5" ry=".5" style="color:#000;enable-background:new;fill:#bebebe"/><rect id="rect5313-6-0-8" width="5" height="1" x="545" y="391" rx=".5" ry=".5" style="color:#000;enable-background:new;fill:#bebebe"/></g></svg>